<svg xmlns="http://www.w3.org/2000/svg" xmlns:xlink="http://www.w3.org/1999/xlink" width="370" zoomAndPan="magnify" viewBox="0 0 277.5 69.749997" height="93" preserveAspectRatio="xMidYMid meet" version="1.0"><defs><g/></defs><path fill="#1a1a1a" d="M 29.949219 15.242188 C 29.644531 15.425781 29.066406 15.820312 28.683594 16.113281 C 27.949219 16.691406 25.789062 18.902344 25.789062 19.085938 C 25.789062 19.144531 25.984375 19.195312 26.21875 19.195312 C 26.449219 19.195312 27.136719 19.367188 27.726562 19.574219 L 28.820312 19.945312 L 29.851562 19.613281 C 31.570312 19.046875 33.414062 19.183594 34.726562 19.96875 C 34.949219 20.089844 35.15625 20.175781 35.191406 20.152344 C 35.21875 20.117188 35.082031 19.871094 34.898438 19.613281 C 34.566406 19.160156 33.929688 17.90625 33.5 16.863281 C 33.265625 16.308594 32.738281 15.695312 32.125 15.253906 C 31.484375 14.773438 30.734375 14.773438 29.949219 15.242188 Z M 29.949219 15.242188 " fill-opacity="1" fill-rule="nonzero"/><path fill="#1a1a1a" d="M 18.703125 17.683594 C 17.71875 18.027344 17.191406 19.207031 16.824219 21.957031 C 16.75 22.5 16.664062 23.101562 16.625 23.308594 C 16.589844 23.589844 16.34375 23.863281 15.535156 24.5 C 14.121094 25.628906 13.359375 26.109375 12.339844 26.476562 C 11.875 26.648438 11.382812 26.820312 11.273438 26.871094 C 10.90625 27.015625 10.5625 27.71875 10.5625 28.292969 C 10.5625 29.644531 11.496094 31.917969 12.648438 33.367188 C 13.582031 34.53125 15.925781 36.375 16.773438 36.582031 C 17.105469 36.667969 17.105469 36.65625 17.007812 36.25 C 16.945312 36.019531 16.898438 34.972656 16.886719 33.929688 C 16.859375 32.222656 16.835938 31.976562 16.601562 31.585938 C 16.183594 30.910156 15.964844 30.027344 15.964844 29.054688 C 15.964844 27.117188 16.957031 25.371094 18.675781 24.292969 C 18.972656 24.09375 19.179688 23.863281 19.230469 23.640625 C 19.476562 22.558594 20.605469 21.039062 21.710938 20.277344 C 22.015625 20.066406 22.65625 19.734375 23.109375 19.5625 C 24.105469 19.171875 24.105469 19.171875 22.558594 18.457031 C 21.601562 18.015625 19.78125 17.464844 19.378906 17.488281 C 19.292969 17.488281 18.984375 17.574219 18.703125 17.683594 Z M 18.703125 17.683594 " fill-opacity="1" fill-rule="nonzero"/><path fill="#1a1a1a" d="M 38.25 20.742188 C 37.574219 20.976562 36.925781 21.210938 36.8125 21.246094 C 36.53125 21.332031 36.53125 21.480469 36.8125 21.675781 C 37.035156 21.824219 38.066406 23.445312 38.066406 23.628906 C 38.066406 23.675781 38.324219 23.875 38.65625 24.058594 C 40.953125 25.410156 42.179688 27.890625 41.699219 30.210938 C 41.515625 31.070312 41.515625 31.117188 41.800781 31.878906 C 42.476562 33.660156 42.683594 36.203125 42.304688 37.847656 C 42.191406 38.277344 42.132812 38.65625 42.15625 38.671875 C 42.242188 38.769531 43.664062 37.75 44.28125 37.160156 C 45.542969 35.957031 46.527344 34.398438 47.019531 32.824219 C 47.472656 31.386719 47.421875 31.265625 45.988281 30.113281 C 45.507812 29.71875 44.734375 29.03125 44.253906 28.578125 C 43.175781 27.519531 43.113281 27.335938 42.976562 24.390625 C 42.867188 21.871094 42.695312 21.171875 42.082031 20.667969 C 41.75 20.398438 41.566406 20.363281 40.582031 20.335938 C 39.589844 20.3125 39.355469 20.347656 38.25 20.742188 Z M 38.25 20.742188 " fill-opacity="1" fill-rule="nonzero"/><path fill="#1a1a1a" d="M 23.882812 20.765625 C 22.890625 21.097656 22.300781 21.46875 21.648438 22.191406 C 20.753906 23.160156 20.382812 24.15625 20.382812 25.582031 C 20.382812 26.832031 20.667969 27.777344 21.453125 29.054688 C 21.882812 29.769531 23.710938 31.71875 23.957031 31.71875 C 24.019531 31.71875 23.882812 31.375 23.664062 30.945312 C 22.976562 29.632812 22.691406 28.527344 22.707031 27.238281 C 22.71875 26.601562 22.753906 25.984375 22.804688 25.863281 C 23.6875 23.347656 25.761719 21.773438 28.207031 21.773438 C 28.699219 21.773438 29.101562 21.726562 29.101562 21.664062 C 29.101562 21.554688 27.578125 20.890625 26.832031 20.679688 C 26.132812 20.484375 24.597656 20.535156 23.882812 20.765625 Z M 23.882812 20.765625 " fill-opacity="1" fill-rule="nonzero"/><path fill="#1a1a1a" d="M 30.859375 20.742188 C 30.625 20.804688 30.699219 20.902344 31.496094 21.6875 C 33.265625 23.445312 33.878906 25.566406 33.289062 27.914062 C 32.957031 29.179688 32.640625 29.855469 31.667969 31.300781 C 31.191406 32.003906 29.816406 33.378906 29.347656 33.625 C 29.128906 33.734375 29.003906 33.867188 29.054688 33.917969 C 29.199219 34.039062 30.980469 34.296875 31.695312 34.296875 C 32.394531 34.296875 32.578125 34.199219 33.84375 33.21875 C 35.980469 31.574219 37.328125 29.054688 37.328125 26.746094 C 37.328125 24.414062 36.027344 22.167969 34.074219 21.171875 C 33.386719 20.816406 33.140625 20.753906 32.210938 20.71875 C 31.609375 20.707031 31.007812 20.71875 30.859375 20.742188 Z M 32.210938 33.035156 C 32.125 33.058594 31.976562 33.058594 31.902344 33.035156 C 31.816406 32.996094 31.878906 32.972656 32.050781 32.972656 C 32.222656 32.972656 32.28125 32.996094 32.210938 33.035156 Z M 32.210938 33.035156 " fill-opacity="1" fill-rule="nonzero"/><path fill="#1a1a1a" d="M 27.078125 23.296875 C 26.535156 23.46875 25.652344 23.984375 25.1875 24.402344 C 24.496094 25.015625 23.945312 26.28125 23.945312 27.226562 L 23.945312 27.71875 L 24.265625 27.066406 C 24.707031 26.195312 25.703125 25.199219 26.574219 24.78125 C 27.886719 24.144531 29.3125 24.253906 30.527344 25.089844 C 31.191406 25.554688 31.523438 26.058594 31.632812 26.785156 C 31.730469 27.433594 31.925781 27.398438 32.148438 26.671875 C 32.453125 25.628906 31.964844 24.449219 30.957031 23.800781 C 29.949219 23.171875 28.207031 22.941406 27.078125 23.296875 Z M 27.078125 23.296875 " fill-opacity="1" fill-rule="nonzero"/><path fill="#1a1a1a" d="M 27.382812 25.839844 C 26.585938 26.15625 26.425781 26.820312 26.929688 27.789062 C 27.261719 28.464844 28.023438 28.933594 28.820312 28.945312 C 29.300781 28.957031 29.421875 28.894531 29.777344 28.503906 C 30.710938 27.496094 30.378906 26.183594 29.113281 25.824219 C 28.5625 25.679688 27.789062 25.679688 27.382812 25.839844 Z M 27.382812 25.839844 " fill-opacity="1" fill-rule="nonzero"/><path fill="#1a1a1a" d="M 18.417969 26.28125 C 17.277344 27.582031 16.984375 29.339844 17.683594 30.785156 C 17.878906 31.191406 18.175781 31.683594 18.347656 31.855469 C 18.714844 32.25 19.636719 32.996094 19.894531 33.121094 C 19.992188 33.15625 20.25 33.304688 20.445312 33.4375 C 21.011719 33.808594 22.335938 34.421875 22.582031 34.421875 C 22.65625 34.421875 22.816406 34.472656 22.9375 34.53125 C 23.761719 34.972656 25.617188 35.269531 27.445312 35.269531 L 28.671875 35.269531 L 27.542969 34.925781 C 24.839844 34.089844 22.289062 32.433594 20.800781 30.542969 C 19.867188 29.351562 19.046875 27.347656 19.035156 26.21875 C 19.035156 25.714844 18.910156 25.726562 18.417969 26.28125 Z M 18.417969 26.28125 " fill-opacity="1" fill-rule="nonzero"/><path fill="#1a1a1a" d="M 38.59375 27.089844 C 38.570312 28.613281 38.214844 29.867188 37.402344 31.230469 C 36.8125 32.222656 35.84375 33.402344 35.132812 33.96875 C 34.886719 34.164062 34.664062 34.359375 34.628906 34.410156 C 34.433594 34.691406 32.921875 35.527344 31.867188 35.945312 C 29.960938 36.691406 26.660156 36.902344 24.363281 36.410156 C 22.289062 35.96875 20.496094 35.207031 19.007812 34.152344 L 18.175781 33.5625 L 18.175781 34.089844 C 18.175781 34.886719 18.492188 36.730469 18.777344 37.589844 C 19.550781 39.945312 21.171875 41.617188 23.109375 42.035156 C 23.808594 42.183594 23.921875 42.144531 24.351562 41.566406 C 25.101562 40.574219 27.1875 38.597656 27.480469 38.597656 C 27.554688 38.597656 27.628906 38.546875 27.652344 38.5 C 27.75 38.253906 30.675781 36.65625 32.296875 35.957031 C 35.316406 34.644531 36.496094 34.027344 37.992188 32.960938 C 40.351562 31.277344 41.027344 29.398438 40.007812 27.359375 C 39.6875 26.734375 38.949219 25.824219 38.765625 25.824219 C 38.667969 25.824219 38.605469 26.207031 38.59375 27.089844 Z M 38.59375 27.089844 " fill-opacity="1" fill-rule="nonzero"/><path fill="#1a1a1a" d="M 25.136719 28.355469 C 25.027344 28.664062 24.953125 28.96875 24.988281 29.019531 C 25.027344 29.066406 25.285156 29.179688 25.589844 29.253906 C 25.886719 29.324219 26.230469 29.425781 26.351562 29.472656 C 26.5 29.523438 26.425781 29.363281 26.117188 28.957031 C 25.859375 28.625 25.628906 28.234375 25.589844 28.074219 C 25.480469 27.65625 25.371094 27.730469 25.136719 28.355469 Z M 25.136719 28.355469 " fill-opacity="1" fill-rule="nonzero"/><path fill="#1a1a1a" d="M 29.777344 30.320312 C 29.238281 30.542969 28.453125 30.761719 28.046875 30.8125 C 27.347656 30.886719 25.875 30.75 25.210938 30.542969 C 24.925781 30.46875 24.925781 30.46875 25.257812 31.042969 C 25.628906 31.71875 26.964844 33.195312 27.199219 33.195312 C 27.519531 33.195312 28.414062 32.628906 29.128906 31.976562 C 29.839844 31.328125 31.054688 29.867188 30.859375 29.890625 C 30.808594 29.902344 30.316406 30.085938 29.777344 30.320312 Z M 29.777344 30.320312 " fill-opacity="1" fill-rule="nonzero"/><path fill="#1a1a1a" d="M 39.933594 33.15625 C 38.25 34.703125 37.355469 35.21875 32.480469 37.40625 C 30.933594 38.105469 29.519531 38.855469 28.453125 39.554688 C 27.617188 40.09375 25.738281 41.863281 25.34375 42.476562 C 25.136719 42.785156 25.136719 42.796875 25.492188 43.078125 C 26.019531 43.519531 27.640625 44.34375 28.613281 44.675781 C 32 45.828125 35.722656 44.96875 38.261719 42.464844 C 40.398438 40.363281 41.320312 37.738281 41.011719 34.691406 C 40.902344 33.660156 40.695312 32.578125 40.609375 32.578125 C 40.582031 32.578125 40.289062 32.835938 39.933594 33.15625 Z M 39.933594 33.15625 " fill-opacity="1" fill-rule="nonzero"/><path fill="#1a1a1a" d="M 12.023438 36.71875 C 11.152344 37.8125 10.5625 38.964844 10.5625 39.554688 C 10.5625 40.132812 10.929688 40.78125 11.691406 41.519531 C 13.300781 43.078125 15.421875 44.171875 17.816406 44.675781 L 18.886719 44.894531 L 19.402344 46.039062 C 20.175781 47.757812 21.28125 49.121094 22.765625 50.226562 C 23.578125 50.828125 23.835938 50.863281 24.816406 50.519531 C 26.792969 49.84375 29.199219 48.160156 30.046875 46.859375 C 30.292969 46.492188 30.183594 46.394531 29.359375 46.269531 C 27.875 46.050781 26.058594 45.214844 24.375 43.988281 C 23.96875 43.691406 23.515625 43.484375 23.023438 43.386719 C 20.800781 42.917969 18.960938 41.359375 17.878906 39.027344 C 17.546875 38.328125 17.5 38.277344 16.773438 38.007812 C 15.632812 37.589844 14.515625 36.949219 13.800781 36.324219 C 13.324219 35.90625 13.113281 35.773438 12.957031 35.773438 C 12.855469 35.773438 12.425781 36.203125 12.023438 36.71875 Z M 12.023438 36.71875 " fill-opacity="1" fill-rule="nonzero"/><path fill="#1a1a1a" d="M 41.0625 41.078125 C 39.234375 44.207031 36.210938 46.160156 32.625 46.527344 C 31.925781 46.601562 31.816406 46.652344 31.621094 46.972656 C 31.507812 47.167969 31.238281 47.523438 31.042969 47.757812 C 30.835938 47.988281 30.699219 48.246094 30.734375 48.335938 C 30.808594 48.519531 32.308594 48.960938 33.523438 49.144531 C 34.675781 49.328125 36.65625 49.304688 37.785156 49.09375 C 39.566406 48.765625 41.160156 47.988281 43.050781 46.566406 C 44.539062 45.449219 44.511719 45.484375 44.328125 44.761719 C 43.960938 43.3125 42.179688 40.351562 41.664062 40.328125 C 41.578125 40.316406 41.308594 40.660156 41.0625 41.078125 Z M 41.0625 41.078125 " fill-opacity="1" fill-rule="nonzero"/><g fill="#1a1a1a" fill-opacity="1"><g transform="translate(55.539295, 46.612768)"><g><path d="M 18.359375 -11.890625 C 19.304688 -11.691406 20.140625 -11.289062 20.859375 -10.6875 C 21.585938 -10.09375 22.109375 -9.296875 22.421875 -8.296875 L 23.0625 -6.203125 C 23.34375 -5.253906 23.679688 -4.535156 24.078125 -4.046875 C 24.472656 -3.566406 24.976562 -3.328125 25.59375 -3.328125 C 26.175781 -3.328125 26.722656 -3.535156 27.234375 -3.953125 C 27.742188 -4.378906 28.179688 -4.859375 28.546875 -5.390625 C 28.921875 -5.929688 29.1875 -6.351562 29.34375 -6.65625 C 29.894531 -6.65625 30.132812 -6.320312 30.0625 -5.65625 C 29.988281 -5.125 29.765625 -4.53125 29.390625 -3.875 C 29.023438 -3.226562 28.539062 -2.609375 27.9375 -2.015625 C 27.34375 -1.429688 26.660156 -0.945312 25.890625 -0.5625 C 25.128906 -0.1875 24.316406 0 23.453125 0 C 22.097656 0 20.976562 -0.421875 20.09375 -1.265625 C 19.21875 -2.109375 18.585938 -3.269531 18.203125 -4.75 L 17.484375 -7.53125 C 17.222656 -8.582031 16.875 -9.367188 16.4375 -9.890625 C 16.007812 -10.410156 15.363281 -10.671875 14.5 -10.671875 L 12.3125 -10.671875 L 11.171875 -4.015625 C 10.941406 -2.691406 10.875 -1.753906 10.96875 -1.203125 C 11.070312 -0.648438 11.125 -0.375 11.125 -0.375 C 11.125 -0.375 10.957031 -0.3125 10.625 -0.1875 C 10.300781 -0.0625 9.742188 0 8.953125 0 C 7.546875 0 6.648438 -0.320312 6.265625 -0.96875 C 5.890625 -1.625 5.828125 -2.691406 6.078125 -4.171875 L 8.953125 -20.65625 C 9.179688 -21.976562 9.242188 -22.90625 9.140625 -23.4375 C 9.035156 -23.976562 8.984375 -24.25 8.984375 -24.25 C 8.984375 -24.25 9.148438 -24.3125 9.484375 -24.4375 C 9.816406 -24.570312 10.378906 -24.640625 11.171875 -24.640625 C 12.597656 -24.640625 13.492188 -24.3125 13.859375 -23.65625 C 14.234375 -23.007812 14.289062 -21.945312 14.03125 -20.46875 L 12.703125 -12.78125 L 14.15625 -12.78125 C 16.425781 -12.78125 18.226562 -13.425781 19.5625 -14.71875 C 20.90625 -16.019531 21.578125 -17.796875 21.578125 -20.046875 C 21.578125 -22.003906 20.835938 -23.578125 19.359375 -24.765625 C 17.878906 -25.953125 15.390625 -26.554688 11.890625 -26.578125 C 9.953125 -26.578125 8.40625 -26.320312 7.25 -25.8125 C 6.09375 -25.300781 5.25 -24.671875 4.71875 -23.921875 C 4.195312 -23.171875 3.9375 -22.425781 3.9375 -21.6875 C 3.9375 -21.15625 4.070312 -20.726562 4.34375 -20.40625 C 4.613281 -20.082031 4.988281 -19.921875 5.46875 -19.921875 C 5.675781 -19.921875 5.835938 -19.941406 5.953125 -19.984375 C 6.066406 -20.023438 6.125 -20.046875 6.125 -20.046875 C 6.125 -20.046875 6.128906 -20.019531 6.140625 -19.96875 C 6.148438 -19.914062 6.15625 -19.828125 6.15625 -19.703125 C 6.15625 -19.242188 5.910156 -18.769531 5.421875 -18.28125 C 4.941406 -17.800781 4.21875 -17.5625 3.25 -17.5625 C 2 -17.5625 1.015625 -17.910156 0.296875 -18.609375 C -0.410156 -19.304688 -0.765625 -20.226562 -0.765625 -21.375 C -0.765625 -22.65625 -0.304688 -23.847656 0.609375 -24.953125 C 1.523438 -26.066406 2.9375 -26.96875 4.84375 -27.65625 C 6.757812 -28.34375 9.210938 -28.6875 12.203125 -28.6875 C 15.585938 -28.6875 18.359375 -28.3125 20.515625 -27.5625 C 22.671875 -26.8125 24.269531 -25.769531 25.3125 -24.4375 C 26.363281 -23.113281 26.890625 -21.570312 26.890625 -19.8125 C 26.890625 -18.40625 26.492188 -17.140625 25.703125 -16.015625 C 24.910156 -14.898438 23.867188 -13.984375 22.578125 -13.265625 C 21.296875 -12.554688 19.890625 -12.097656 18.359375 -11.890625 Z M 18.359375 -11.890625 "/></g></g></g><g fill="#1a1a1a" fill-opacity="1"><g transform="translate(84.483615, 46.612768)"><g><path d="M 9.453125 -19.125 C 11.691406 -19.125 13.421875 -18.453125 14.640625 -17.109375 C 15.867188 -15.773438 16.484375 -14.007812 16.484375 -11.8125 C 16.484375 -11.40625 16.460938 -11 16.421875 -10.59375 C 16.390625 -10.1875 16.347656 -9.789062 16.296875 -9.40625 C 17.265625 -9.5625 18.09375 -9.878906 18.78125 -10.359375 C 19.46875 -10.847656 19.992188 -11.304688 20.359375 -11.734375 C 20.734375 -12.171875 20.921875 -12.390625 20.921875 -12.390625 C 21.453125 -12.390625 21.679688 -12.070312 21.609375 -11.4375 C 21.535156 -11 21.234375 -10.503906 20.703125 -9.953125 C 20.179688 -9.410156 19.503906 -8.921875 18.671875 -8.484375 C 17.847656 -8.054688 16.925781 -7.78125 15.90625 -7.65625 C 15.269531 -5.382812 14.09375 -3.539062 12.375 -2.125 C 10.65625 -0.707031 8.492188 0 5.890625 0 C 3.878906 0 2.203125 -0.625 0.859375 -1.875 C -0.472656 -3.125 -1.140625 -4.9375 -1.140625 -7.3125 C -1.140625 -9.625 -0.710938 -11.664062 0.140625 -13.4375 C 0.992188 -15.21875 2.21875 -16.609375 3.8125 -17.609375 C 5.40625 -18.617188 7.285156 -19.125 9.453125 -19.125 Z M 9.59375 -11.703125 C 9.59375 -12.367188 9.757812 -12.9375 10.09375 -13.40625 C 10.425781 -13.875 10.910156 -14.175781 11.546875 -14.3125 C 11.347656 -16.269531 10.519531 -17.25 9.0625 -17.25 C 8.125 -17.25 7.191406 -16.6875 6.265625 -15.5625 C 5.347656 -14.445312 4.625 -12.457031 4.09375 -9.59375 C 3.988281 -9.113281 3.90625 -8.457031 3.84375 -7.625 C 3.78125 -6.800781 3.75 -6.144531 3.75 -5.65625 C 3.75 -4.457031 3.972656 -3.53125 4.421875 -2.875 C 4.867188 -2.226562 5.484375 -1.90625 6.265625 -1.90625 C 7.316406 -1.90625 8.253906 -2.457031 9.078125 -3.5625 C 9.910156 -4.675781 10.566406 -6.382812 11.046875 -8.6875 C 10.078125 -9.425781 9.59375 -10.429688 9.59375 -11.703125 Z M 9.59375 -11.703125 "/></g></g></g><g fill="#1a1a1a" fill-opacity="1"><g transform="translate(104.786686, 46.612768)"><g><path d="M 6.078125 -12.390625 L 9.375 -10.671875 C 10.769531 -9.953125 11.75 -9.1875 12.3125 -8.375 C 12.875 -7.5625 13.15625 -6.644531 13.15625 -5.625 C 13.15625 -4.625 12.863281 -3.695312 12.28125 -2.84375 C 11.695312 -1.988281 10.8125 -1.300781 9.625 -0.78125 C 8.4375 -0.257812 6.910156 0 5.046875 0 C 3.410156 0 2.082031 -0.234375 1.0625 -0.703125 C 0.0507812 -1.179688 -0.691406 -1.769531 -1.171875 -2.46875 C -1.660156 -3.164062 -1.90625 -3.847656 -1.90625 -4.515625 C -1.90625 -5.253906 -1.648438 -5.820312 -1.140625 -6.21875 C -0.628906 -6.613281 -0.046875 -6.8125 0.609375 -6.8125 C 1.273438 -6.8125 1.75 -6.71875 2.03125 -6.53125 C 2.3125 -6.351562 2.453125 -6.265625 2.453125 -6.265625 C 2.453125 -6.265625 2.414062 -6.171875 2.34375 -5.984375 C 2.28125 -5.796875 2.25 -5.519531 2.25 -5.15625 C 2.25 -4.21875 2.503906 -3.445312 3.015625 -2.84375 C 3.523438 -2.25 4.332031 -1.9375 5.4375 -1.90625 C 6.53125 -1.90625 7.335938 -2.144531 7.859375 -2.625 C 8.378906 -3.113281 8.640625 -3.679688 8.640625 -4.328125 C 8.640625 -4.785156 8.5 -5.210938 8.21875 -5.609375 C 7.9375 -6.003906 7.453125 -6.378906 6.765625 -6.734375 L 3.015625 -8.71875 C 2.097656 -9.226562 1.3125 -9.832031 0.65625 -10.53125 C 0.0078125 -11.238281 -0.3125 -12.226562 -0.3125 -13.5 C -0.3125 -15.050781 0.363281 -16.375 1.71875 -17.46875 C 3.070312 -18.570312 5.097656 -19.125 7.796875 -19.125 C 9.378906 -19.125 10.6875 -18.882812 11.71875 -18.40625 C 12.75 -17.9375 13.515625 -17.351562 14.015625 -16.65625 C 14.515625 -15.957031 14.765625 -15.273438 14.765625 -14.609375 C 14.765625 -13.898438 14.507812 -13.335938 14 -12.921875 C 13.488281 -12.515625 12.898438 -12.3125 12.234375 -12.3125 C 11.597656 -12.3125 11.132812 -12.398438 10.84375 -12.578125 C 10.550781 -12.765625 10.40625 -12.859375 10.40625 -12.859375 C 10.40625 -12.859375 10.4375 -12.957031 10.5 -13.15625 C 10.5625 -13.363281 10.59375 -13.632812 10.59375 -13.96875 C 10.59375 -14.851562 10.316406 -15.613281 9.765625 -16.25 C 9.222656 -16.894531 8.414062 -17.21875 7.34375 -17.21875 C 6.300781 -17.21875 5.515625 -16.976562 4.984375 -16.5 C 4.460938 -16.03125 4.203125 -15.460938 4.203125 -14.796875 C 4.203125 -14.242188 4.351562 -13.785156 4.65625 -13.421875 C 4.96875 -13.066406 5.441406 -12.722656 6.078125 -12.390625 Z M 6.078125 -12.390625 "/></g></g></g><g fill="#1a1a1a" fill-opacity="1"><g transform="translate(122.222098, 46.612768)"><g><path d="M 16.90625 -15.984375 L 15.265625 -6.6875 C 15.054688 -5.539062 15.101562 -4.691406 15.40625 -4.140625 C 15.71875 -3.597656 16.21875 -3.328125 16.90625 -3.328125 C 17.570312 -3.328125 18.285156 -3.625 19.046875 -4.21875 C 19.816406 -4.820312 20.441406 -5.632812 20.921875 -6.65625 C 21.179688 -6.65625 21.378906 -6.578125 21.515625 -6.421875 C 21.648438 -6.273438 21.695312 -6.019531 21.65625 -5.65625 C 21.550781 -5.144531 21.3125 -4.570312 20.9375 -3.9375 C 20.570312 -3.300781 20.082031 -2.679688 19.46875 -2.078125 C 18.851562 -1.484375 18.148438 -0.988281 17.359375 -0.59375 C 16.578125 -0.195312 15.722656 0 14.796875 0 C 13.546875 0 12.515625 -0.375 11.703125 -1.125 C 10.890625 -1.875 10.429688 -2.941406 10.328125 -4.328125 C 9.535156 -2.921875 8.632812 -1.847656 7.625 -1.109375 C 6.625 -0.367188 5.570312 0 4.46875 0 C 2.914062 0 1.59375 -0.535156 0.5 -1.609375 C -0.59375 -2.679688 -1.140625 -4.335938 -1.140625 -6.578125 C -1.140625 -8.722656 -0.859375 -10.578125 -0.296875 -12.140625 C 0.253906 -13.710938 0.988281 -15.015625 1.90625 -16.046875 C 2.832031 -17.078125 3.847656 -17.847656 4.953125 -18.359375 C 6.066406 -18.867188 7.179688 -19.125 8.296875 -19.125 C 9.265625 -19.125 10.085938 -18.953125 10.765625 -18.609375 C 11.441406 -18.265625 12 -17.8125 12.4375 -17.25 C 12.738281 -17.9375 13.148438 -18.421875 13.671875 -18.703125 C 14.191406 -18.984375 14.925781 -19.125 15.875 -19.125 C 16.539062 -19.125 17.023438 -19.0625 17.328125 -18.9375 C 17.628906 -18.8125 17.78125 -18.75 17.78125 -18.75 C 17.78125 -18.75 17.6875 -18.550781 17.5 -18.15625 C 17.3125 -17.757812 17.113281 -17.035156 16.90625 -15.984375 Z M 6 -3.328125 C 6.6875 -3.328125 7.320312 -3.640625 7.90625 -4.265625 C 8.5 -4.890625 9.023438 -5.691406 9.484375 -6.671875 C 9.941406 -7.648438 10.34375 -8.691406 10.6875 -9.796875 C 11.03125 -10.910156 11.289062 -11.941406 11.46875 -12.890625 L 11.8125 -14.6875 C 11.632812 -15.070312 11.351562 -15.472656 10.96875 -15.890625 C 10.59375 -16.316406 10.035156 -16.53125 9.296875 -16.53125 C 8.429688 -16.53125 7.570312 -16.117188 6.71875 -15.296875 C 5.863281 -14.484375 5.15625 -13.328125 4.59375 -11.828125 C 4.03125 -10.335938 3.75 -8.5625 3.75 -6.5 C 3.75 -5.425781 3.945312 -4.628906 4.34375 -4.109375 C 4.738281 -3.585938 5.289062 -3.328125 6 -3.328125 Z M 6 -3.328125 "/></g></g></g><g fill="#1a1a1a" fill-opacity="1"><g transform="translate(143.519308, 46.612768)"><g/></g></g><g fill="#1a1a1a" fill-opacity="1"><g transform="translate(151.931138, 46.612768)"><g><path d="M 13.5 -26.578125 C 11.945312 -26.578125 10.671875 -26.148438 9.671875 -25.296875 C 8.679688 -24.441406 8.1875 -23.316406 8.1875 -21.921875 C 8.1875 -21.128906 8.414062 -20.367188 8.875 -19.640625 C 9.332031 -18.910156 9.992188 -18.289062 10.859375 -17.78125 L 15.71875 -14.953125 C 17.351562 -14.015625 18.507812 -12.976562 19.1875 -11.84375 C 19.863281 -10.707031 20.203125 -9.460938 20.203125 -8.109375 C 20.203125 -6.703125 19.789062 -5.378906 18.96875 -4.140625 C 18.15625 -2.910156 16.953125 -1.910156 15.359375 -1.140625 C 13.765625 -0.378906 11.804688 0 9.484375 0 C 7.753906 0 6.226562 -0.265625 4.90625 -0.796875 C 3.59375 -1.335938 2.570312 -2.070312 1.84375 -3 C 1.125 -3.9375 0.765625 -4.988281 0.765625 -6.15625 C 0.765625 -7.53125 1.09375 -8.535156 1.75 -9.171875 C 2.414062 -9.816406 3.207031 -10.140625 4.125 -10.140625 C 4.738281 -10.140625 5.21875 -10.054688 5.5625 -9.890625 C 5.90625 -9.722656 6.140625 -9.554688 6.265625 -9.390625 C 6.398438 -9.222656 6.46875 -9.140625 6.46875 -9.140625 C 6.46875 -9.140625 6.359375 -9.007812 6.140625 -8.75 C 5.921875 -8.5 5.695312 -8.140625 5.46875 -7.671875 C 5.238281 -7.203125 5.125 -6.632812 5.125 -5.96875 C 5.125 -4.820312 5.519531 -3.890625 6.3125 -3.171875 C 7.101562 -2.460938 8.238281 -2.109375 9.71875 -2.109375 C 11.445312 -2.109375 12.804688 -2.554688 13.796875 -3.453125 C 14.796875 -4.359375 15.296875 -5.4375 15.296875 -6.6875 C 15.296875 -7.65625 15.023438 -8.507812 14.484375 -9.25 C 13.953125 -9.988281 13.050781 -10.71875 11.78125 -11.4375 L 7.6875 -13.765625 C 6.082031 -14.679688 4.945312 -15.691406 4.28125 -16.796875 C 3.625 -17.910156 3.296875 -19.160156 3.296875 -20.546875 C 3.296875 -21.972656 3.6875 -23.300781 4.46875 -24.53125 C 5.257812 -25.769531 6.414062 -26.769531 7.9375 -27.53125 C 9.457031 -28.300781 11.328125 -28.6875 13.546875 -28.6875 C 15.347656 -28.6875 16.929688 -28.40625 18.296875 -27.84375 C 19.660156 -27.28125 20.71875 -26.515625 21.46875 -25.546875 C 22.226562 -24.578125 22.609375 -23.457031 22.609375 -22.1875 C 22.609375 -20.863281 22.273438 -19.820312 21.609375 -19.0625 C 20.941406 -18.3125 20.023438 -17.9375 18.859375 -17.9375 C 17.941406 -17.9375 17.289062 -18.101562 16.90625 -18.4375 C 16.519531 -18.769531 16.328125 -18.9375 16.328125 -18.9375 C 16.328125 -18.9375 16.484375 -19.0625 16.796875 -19.3125 C 17.117188 -19.570312 17.441406 -19.988281 17.765625 -20.5625 C 18.085938 -21.132812 18.25 -21.878906 18.25 -22.796875 C 18.25 -23.867188 17.863281 -24.765625 17.09375 -25.484375 C 16.332031 -26.210938 15.132812 -26.578125 13.5 -26.578125 Z M 13.5 -26.578125 "/></g></g></g><g fill="#1a1a1a" fill-opacity="1"><g transform="translate(174.910703, 46.612768)"><g><path d="M 7.5 0 C 5.8125 0 4.316406 -0.328125 3.015625 -0.984375 C 1.722656 -1.648438 0.707031 -2.59375 -0.03125 -3.8125 C -0.769531 -5.039062 -1.140625 -6.472656 -1.140625 -8.109375 C -1.140625 -9.765625 -0.859375 -11.269531 -0.296875 -12.625 C 0.253906 -13.976562 1.007812 -15.140625 1.96875 -16.109375 C 2.925781 -17.078125 4.015625 -17.820312 5.234375 -18.34375 C 6.460938 -18.863281 7.726562 -19.125 9.03125 -19.125 C 10.613281 -19.125 11.90625 -18.710938 12.90625 -17.890625 C 13.914062 -17.078125 14.421875 -16.046875 14.421875 -14.796875 C 14.421875 -13.648438 14.117188 -12.703125 13.515625 -11.953125 C 12.921875 -11.203125 12.125 -10.828125 11.125 -10.828125 C 10.4375 -10.828125 9.957031 -10.976562 9.6875 -11.28125 C 9.425781 -11.59375 9.296875 -11.75 9.296875 -11.75 C 9.296875 -11.75 9.414062 -11.878906 9.65625 -12.140625 C 9.894531 -12.410156 10.128906 -12.816406 10.359375 -13.359375 C 10.585938 -13.910156 10.703125 -14.609375 10.703125 -15.453125 C 10.703125 -15.984375 10.535156 -16.410156 10.203125 -16.734375 C 9.878906 -17.054688 9.460938 -17.21875 8.953125 -17.21875 C 8.160156 -17.21875 7.367188 -16.867188 6.578125 -16.171875 C 5.785156 -15.484375 5.128906 -14.515625 4.609375 -13.265625 C 4.085938 -12.023438 3.828125 -10.5625 3.828125 -8.875 C 3.828125 -7.09375 4.316406 -5.671875 5.296875 -4.609375 C 6.273438 -3.546875 7.660156 -3.015625 9.453125 -3.015625 C 10.753906 -3.015625 11.878906 -3.207031 12.828125 -3.59375 C 13.785156 -3.976562 14.59375 -4.453125 15.25 -5.015625 C 15.914062 -5.578125 16.414062 -6.125 16.75 -6.65625 C 17.3125 -6.65625 17.515625 -6.320312 17.359375 -5.65625 C 17.265625 -5.25 16.972656 -4.726562 16.484375 -4.09375 C 16.003906 -3.457031 15.34375 -2.828125 14.5 -2.203125 C 13.65625 -1.578125 12.644531 -1.050781 11.46875 -0.625 C 10.300781 -0.207031 8.976562 0 7.5 0 Z M 7.5 0 "/></g></g></g><g fill="#1a1a1a" fill-opacity="1"><g transform="translate(192.154931, 46.612768)"><g><path d="M 7.5 0 C 5.84375 0 4.359375 -0.328125 3.046875 -0.984375 C 1.734375 -1.648438 0.707031 -2.601562 -0.03125 -3.84375 C -0.769531 -5.082031 -1.140625 -6.554688 -1.140625 -8.265625 C -1.140625 -9.941406 -0.847656 -11.457031 -0.265625 -12.8125 C 0.316406 -14.164062 1.097656 -15.304688 2.078125 -16.234375 C 3.066406 -17.171875 4.164062 -17.882812 5.375 -18.375 C 6.582031 -18.875 7.828125 -19.125 9.109375 -19.125 C 10.398438 -19.125 11.445312 -18.925781 12.25 -18.53125 C 13.0625 -18.132812 13.648438 -17.632812 14.015625 -17.03125 C 14.390625 -16.4375 14.578125 -15.804688 14.578125 -15.140625 C 14.578125 -13.410156 13.625 -11.960938 11.71875 -10.796875 C 9.820312 -9.640625 7.191406 -8.742188 3.828125 -8.109375 C 3.953125 -6.679688 4.484375 -5.472656 5.421875 -4.484375 C 6.367188 -3.503906 7.660156 -3.015625 9.296875 -3.015625 C 10.671875 -3.015625 11.847656 -3.207031 12.828125 -3.59375 C 13.816406 -3.976562 14.632812 -4.453125 15.28125 -5.015625 C 15.925781 -5.578125 16.414062 -6.125 16.75 -6.65625 C 17.3125 -6.65625 17.515625 -6.320312 17.359375 -5.65625 C 17.285156 -5.25 17 -4.726562 16.5 -4.09375 C 16.007812 -3.457031 15.34375 -2.828125 14.5 -2.203125 C 13.65625 -1.578125 12.640625 -1.050781 11.453125 -0.625 C 10.265625 -0.207031 8.945312 0 7.5 0 Z M 9.140625 -17.21875 C 8.429688 -17.21875 7.691406 -16.941406 6.921875 -16.390625 C 6.160156 -15.835938 5.5 -15.019531 4.9375 -13.9375 C 4.375 -12.851562 4.015625 -11.507812 3.859375 -9.90625 C 6.203125 -10.46875 7.890625 -11.289062 8.921875 -12.375 C 9.960938 -13.457031 10.484375 -14.625 10.484375 -15.875 C 10.484375 -16.28125 10.359375 -16.601562 10.109375 -16.84375 C 9.867188 -17.09375 9.546875 -17.21875 9.140625 -17.21875 Z M 9.140625 -17.21875 "/></g></g></g><g fill="#1a1a1a" fill-opacity="1"><g transform="translate(209.399158, 46.612768)"><g><path d="M 11.328125 -9.140625 L 12.046875 -13.34375 C 12.203125 -14.257812 12.195312 -14.890625 12.03125 -15.234375 C 11.863281 -15.585938 11.5625 -15.765625 11.125 -15.765625 C 10.519531 -15.765625 9.863281 -15.4375 9.15625 -14.78125 C 8.457031 -14.132812 7.753906 -13.242188 7.046875 -12.109375 C 6.347656 -10.972656 5.722656 -9.675781 5.171875 -8.21875 C 4.628906 -6.769531 4.207031 -5.242188 3.90625 -3.640625 C 3.695312 -2.441406 3.632812 -1.59375 3.71875 -1.09375 C 3.8125 -0.59375 3.859375 -0.34375 3.859375 -0.34375 C 3.859375 -0.34375 3.703125 -0.285156 3.390625 -0.171875 C 3.085938 -0.0546875 2.582031 0 1.875 0 C 0.394531 0 -0.5 -0.296875 -0.8125 -0.890625 C -1.132812 -1.492188 -1.179688 -2.457031 -0.953125 -3.78125 L 1.078125 -15.484375 C 1.273438 -16.679688 1.328125 -17.53125 1.234375 -18.03125 C 1.148438 -18.53125 1.109375 -18.78125 1.109375 -18.78125 C 1.109375 -18.78125 1.257812 -18.835938 1.5625 -18.953125 C 1.875 -19.066406 2.382812 -19.125 3.09375 -19.125 C 4.570312 -19.125 5.46875 -18.828125 5.78125 -18.234375 C 6.101562 -17.648438 6.148438 -16.6875 5.921875 -15.34375 L 5.625 -13.578125 C 6.132812 -14.421875 6.773438 -15.269531 7.546875 -16.125 C 8.328125 -16.976562 9.195312 -17.691406 10.15625 -18.265625 C 11.113281 -18.835938 12.101562 -19.125 13.125 -19.125 C 14.320312 -19.125 15.273438 -18.765625 15.984375 -18.046875 C 16.703125 -17.335938 17.0625 -16.382812 17.0625 -15.1875 C 17.0625 -14.78125 17.03125 -14.304688 16.96875 -13.765625 C 16.90625 -13.234375 16.820312 -12.675781 16.71875 -12.09375 L 15.796875 -6.6875 C 15.617188 -5.75 15.640625 -4.953125 15.859375 -4.296875 C 16.078125 -3.648438 16.578125 -3.328125 17.359375 -3.328125 C 18.179688 -3.328125 18.9375 -3.628906 19.625 -4.234375 C 20.3125 -4.847656 20.894531 -5.65625 21.375 -6.65625 C 21.632812 -6.65625 21.832031 -6.578125 21.96875 -6.421875 C 22.113281 -6.273438 22.160156 -6.019531 22.109375 -5.65625 C 22.035156 -5.175781 21.8125 -4.613281 21.4375 -3.96875 C 21.070312 -3.332031 20.582031 -2.707031 19.96875 -2.09375 C 19.351562 -1.488281 18.65625 -0.988281 17.875 -0.59375 C 17.101562 -0.195312 16.269531 0 15.375 0 C 13.945312 0 12.816406 -0.4375 11.984375 -1.3125 C 11.160156 -2.195312 10.75 -3.351562 10.75 -4.78125 C 10.75 -5.289062 10.816406 -5.984375 10.953125 -6.859375 C 11.097656 -7.742188 11.222656 -8.503906 11.328125 -9.140625 Z M 11.328125 -9.140625 "/></g></g></g><g fill="#1a1a1a" fill-opacity="1"><g transform="translate(231.155185, 46.612768)"><g><path d="M -0.234375 -19.125 L 1.5625 -19.125 L 1.953125 -21.1875 C 2.179688 -22.382812 2.242188 -23.234375 2.140625 -23.734375 C 2.035156 -24.234375 1.984375 -24.484375 1.984375 -24.484375 C 1.984375 -24.484375 2.132812 -24.539062 2.4375 -24.65625 C 2.75 -24.769531 3.265625 -24.828125 3.984375 -24.828125 C 5.460938 -24.828125 6.363281 -24.53125 6.6875 -23.9375 C 7.019531 -23.351562 7.0625 -22.382812 6.8125 -21.03125 L 6.46875 -19.125 L 10.25 -19.125 C 10.25 -19.125 10.289062 -19.050781 10.375 -18.90625 C 10.46875 -18.769531 10.515625 -18.578125 10.515625 -18.328125 C 10.515625 -17.992188 10.40625 -17.722656 10.1875 -17.515625 C 9.976562 -17.316406 9.65625 -17.21875 9.21875 -17.21875 L 6.125 -17.21875 L 4.28125 -6.6875 C 4.101562 -5.644531 4.195312 -4.820312 4.5625 -4.21875 C 4.9375 -3.625 5.570312 -3.328125 6.46875 -3.328125 C 7.5625 -3.328125 8.492188 -3.679688 9.265625 -4.390625 C 10.046875 -5.109375 10.640625 -5.863281 11.046875 -6.65625 C 11.304688 -6.65625 11.503906 -6.570312 11.640625 -6.40625 C 11.785156 -6.238281 11.820312 -5.988281 11.75 -5.65625 C 11.5625 -4.894531 11.117188 -4.070312 10.421875 -3.1875 C 9.722656 -2.3125 8.851562 -1.5625 7.8125 -0.9375 C 6.78125 -0.3125 5.65625 0 4.4375 0 C 3.03125 0 1.835938 -0.457031 0.859375 -1.375 C -0.117188 -2.289062 -0.609375 -3.515625 -0.609375 -5.046875 C -0.609375 -5.484375 -0.582031 -6.03125 -0.53125 -6.6875 C -0.476562 -7.351562 -0.363281 -8.171875 -0.1875 -9.140625 L 1.21875 -17.21875 L -1.265625 -17.21875 C -1.265625 -17.21875 -1.304688 -17.285156 -1.390625 -17.421875 C -1.484375 -17.566406 -1.53125 -17.765625 -1.53125 -18.015625 C -1.53125 -18.347656 -1.414062 -18.613281 -1.1875 -18.8125 C -0.957031 -19.019531 -0.640625 -19.125 -0.234375 -19.125 Z M -0.234375 -19.125 "/></g></g></g><g fill="#1a1a1a" fill-opacity="1"><g transform="translate(242.549375, 46.612768)"><g><path d="M 6.078125 -12.390625 L 9.375 -10.671875 C 10.769531 -9.953125 11.75 -9.1875 12.3125 -8.375 C 12.875 -7.5625 13.15625 -6.644531 13.15625 -5.625 C 13.15625 -4.625 12.863281 -3.695312 12.28125 -2.84375 C 11.695312 -1.988281 10.8125 -1.300781 9.625 -0.78125 C 8.4375 -0.257812 6.910156 0 5.046875 0 C 3.410156 0 2.082031 -0.234375 1.0625 -0.703125 C 0.0507812 -1.179688 -0.691406 -1.769531 -1.171875 -2.46875 C -1.660156 -3.164062 -1.90625 -3.847656 -1.90625 -4.515625 C -1.90625 -5.253906 -1.648438 -5.820312 -1.140625 -6.21875 C -0.628906 -6.613281 -0.046875 -6.8125 0.609375 -6.8125 C 1.273438 -6.8125 1.75 -6.71875 2.03125 -6.53125 C 2.3125 -6.351562 2.453125 -6.265625 2.453125 -6.265625 C 2.453125 -6.265625 2.414062 -6.171875 2.34375 -5.984375 C 2.28125 -5.796875 2.25 -5.519531 2.25 -5.15625 C 2.25 -4.21875 2.503906 -3.445312 3.015625 -2.84375 C 3.523438 -2.25 4.332031 -1.9375 5.4375 -1.90625 C 6.53125 -1.90625 7.335938 -2.144531 7.859375 -2.625 C 8.378906 -3.113281 8.640625 -3.679688 8.640625 -4.328125 C 8.640625 -4.785156 8.5 -5.210938 8.21875 -5.609375 C 7.9375 -6.003906 7.453125 -6.378906 6.765625 -6.734375 L 3.015625 -8.71875 C 2.097656 -9.226562 1.3125 -9.832031 0.65625 -10.53125 C 0.0078125 -11.238281 -0.3125 -12.226562 -0.3125 -13.5 C -0.3125 -15.050781 0.363281 -16.375 1.71875 -17.46875 C 3.070312 -18.570312 5.097656 -19.125 7.796875 -19.125 C 9.378906 -19.125 10.6875 -18.882812 11.71875 -18.40625 C 12.75 -17.9375 13.515625 -17.351562 14.015625 -16.65625 C 14.515625 -15.957031 14.765625 -15.273438 14.765625 -14.609375 C 14.765625 -13.898438 14.507812 -13.335938 14 -12.921875 C 13.488281 -12.515625 12.898438 -12.3125 12.234375 -12.3125 C 11.597656 -12.3125 11.132812 -12.398438 10.84375 -12.578125 C 10.550781 -12.765625 10.40625 -12.859375 10.40625 -12.859375 C 10.40625 -12.859375 10.4375 -12.957031 10.5 -13.15625 C 10.5625 -13.363281 10.59375 -13.632812 10.59375 -13.96875 C 10.59375 -14.851562 10.316406 -15.613281 9.765625 -16.25 C 9.222656 -16.894531 8.414062 -17.21875 7.34375 -17.21875 C 6.300781 -17.21875 5.515625 -16.976562 4.984375 -16.5 C 4.460938 -16.03125 4.203125 -15.460938 4.203125 -14.796875 C 4.203125 -14.242188 4.351562 -13.785156 4.65625 -13.421875 C 4.96875 -13.066406 5.441406 -12.722656 6.078125 -12.390625 Z M 6.078125 -12.390625 "/></g></g></g></svg>