<svg xmlns="http://www.w3.org/2000/svg" xmlns:xlink="http://www.w3.org/1999/xlink" width="192" zoomAndPan="magnify" viewBox="0 0 144 143.999998" height="192" preserveAspectRatio="xMidYMid meet" version="1.0"><path fill="#b76e79" d="M 75.949219 4.132812 C 74.773438 4.839844 72.5625 6.34375 71.105469 7.476562 C 68.28125 9.6875 59.996094 18.160156 59.996094 18.863281 C 59.996094 19.101562 60.75 19.289062 61.644531 19.289062 C 62.539062 19.289062 65.171875 19.945312 67.433594 20.746094 L 71.621094 22.160156 L 75.574219 20.886719 C 82.164062 18.722656 89.222656 19.242188 94.257812 22.253906 C 95.105469 22.722656 95.90625 23.054688 96.046875 22.960938 C 96.140625 22.816406 95.625 21.875 94.917969 20.886719 C 93.648438 19.148438 91.199219 14.347656 89.550781 10.347656 C 88.65625 8.226562 86.632812 5.875 84.28125 4.179688 C 81.832031 2.34375 78.964844 2.34375 75.949219 4.132812 Z M 75.949219 4.132812 " fill-opacity="1" fill-rule="nonzero"/><path fill="#b76e79" d="M 32.839844 13.5 C 29.074219 14.816406 27.050781 19.335938 25.640625 29.878906 C 25.359375 31.949219 25.027344 34.253906 24.886719 35.054688 C 24.746094 36.136719 23.804688 37.171875 20.699219 39.621094 C 15.285156 43.949219 12.367188 45.785156 8.460938 47.195312 C 6.675781 47.855469 4.792969 48.515625 4.367188 48.703125 C 2.957031 49.265625 1.636719 51.949219 1.636719 54.160156 C 1.636719 59.339844 5.214844 68.046875 9.640625 73.597656 C 13.214844 78.070312 22.203125 85.128906 25.453125 85.929688 C 26.722656 86.257812 26.722656 86.210938 26.347656 84.660156 C 26.109375 83.765625 25.921875 79.765625 25.875 75.765625 C 25.78125 69.222656 25.6875 68.28125 24.792969 66.773438 C 23.191406 64.1875 22.347656 60.796875 22.347656 57.078125 C 22.347656 49.644531 26.160156 42.960938 32.746094 38.820312 C 33.875 38.066406 34.675781 37.171875 34.863281 36.324219 C 35.804688 32.183594 40.136719 26.347656 44.371094 23.429688 C 45.546875 22.628906 47.996094 21.359375 49.738281 20.699219 C 53.550781 19.195312 53.550781 19.195312 47.617188 16.464844 C 43.949219 14.769531 36.984375 12.652344 35.429688 12.746094 C 35.101562 12.746094 33.921875 13.074219 32.839844 13.5 Z M 32.839844 13.5 " fill-opacity="1" fill-rule="nonzero"/><path fill="#b76e79" d="M 107.765625 25.21875 C 105.175781 26.113281 102.683594 27.007812 102.257812 27.148438 C 101.175781 27.476562 101.175781 28.042969 102.257812 28.792969 C 103.105469 29.359375 107.058594 35.570312 107.058594 36.277344 C 107.058594 36.464844 108.046875 37.21875 109.320312 37.925781 C 118.121094 43.101562 122.824219 52.609375 120.992188 61.503906 C 120.285156 64.796875 120.285156 64.988281 121.367188 67.90625 C 123.957031 74.730469 124.753906 84.46875 123.296875 90.777344 C 122.875 92.425781 122.636719 93.882812 122.730469 93.929688 C 123.0625 94.308594 128.519531 90.402344 130.875 88.140625 C 135.722656 83.53125 139.488281 77.550781 141.367188 71.527344 C 143.109375 66.023438 142.921875 65.550781 137.414062 61.128906 C 135.582031 59.621094 132.613281 56.984375 130.78125 55.246094 C 126.636719 51.195312 126.402344 50.492188 125.886719 39.195312 C 125.460938 29.546875 124.800781 26.867188 122.449219 24.9375 C 121.179688 23.898438 120.472656 23.757812 116.707031 23.664062 C 112.894531 23.570312 112 23.710938 107.765625 25.21875 Z M 107.765625 25.21875 " fill-opacity="1" fill-rule="nonzero"/><path fill="#b76e79" d="M 52.703125 25.3125 C 48.890625 26.582031 46.628906 27.996094 44.136719 30.773438 C 40.699219 34.488281 39.289062 38.300781 39.289062 43.761719 C 39.289062 48.5625 40.371094 52.183594 43.382812 57.078125 C 45.03125 59.808594 52.042969 67.292969 52.984375 67.292969 C 53.21875 67.292969 52.703125 65.976562 51.855469 64.328125 C 49.21875 59.292969 48.136719 55.054688 48.183594 50.113281 C 48.230469 47.667969 48.371094 45.3125 48.558594 44.84375 C 51.949219 35.195312 59.902344 29.171875 69.269531 29.171875 C 71.152344 29.171875 72.703125 28.984375 72.703125 28.746094 C 72.703125 28.324219 66.867188 25.78125 63.996094 24.984375 C 61.3125 24.230469 55.429688 24.417969 52.703125 25.3125 Z M 52.703125 25.3125 " fill-opacity="1" fill-rule="nonzero"/><path fill="#b76e79" d="M 79.433594 25.21875 C 78.539062 25.453125 78.820312 25.828125 81.882812 28.84375 C 88.65625 35.570312 91.011719 43.714844 88.753906 52.703125 C 87.480469 57.550781 86.257812 60.140625 82.539062 65.691406 C 80.703125 68.375 75.433594 73.644531 73.644531 74.585938 C 72.796875 75.011719 72.328125 75.527344 72.515625 75.71875 C 73.082031 76.1875 79.90625 77.175781 82.632812 77.175781 C 85.316406 77.175781 86.023438 76.800781 90.871094 73.035156 C 99.058594 66.726562 104.234375 57.078125 104.234375 48.230469 C 104.234375 39.289062 99.246094 30.675781 91.765625 26.867188 C 89.128906 25.5 88.1875 25.265625 84.609375 25.125 C 82.304688 25.078125 80 25.125 79.433594 25.21875 Z M 84.609375 72.328125 C 84.28125 72.421875 83.714844 72.421875 83.433594 72.328125 C 83.105469 72.1875 83.339844 72.09375 84 72.09375 C 84.65625 72.09375 84.894531 72.1875 84.609375 72.328125 Z M 84.609375 72.328125 " fill-opacity="1" fill-rule="nonzero"/><path fill="#b76e79" d="M 64.9375 35.007812 C 62.867188 35.667969 59.480469 37.644531 57.691406 39.242188 C 55.054688 41.597656 52.9375 46.445312 52.9375 50.066406 L 52.9375 51.949219 L 54.160156 49.457031 C 55.855469 46.113281 59.667969 42.300781 63.007812 40.703125 C 68.042969 38.253906 73.503906 38.679688 78.164062 41.878906 C 80.703125 43.667969 81.976562 45.597656 82.398438 48.375 C 82.773438 50.867188 83.527344 50.726562 84.375 47.949219 C 85.550781 43.949219 83.667969 39.429688 79.808594 36.9375 C 75.949219 34.535156 69.269531 33.640625 64.9375 35.007812 Z M 64.9375 35.007812 " fill-opacity="1" fill-rule="nonzero"/><path fill="#b76e79" d="M 66.113281 44.75 C 63.054688 45.972656 62.445312 48.515625 64.375 52.230469 C 65.644531 54.820312 68.5625 56.609375 71.621094 56.65625 C 73.457031 56.703125 73.925781 56.46875 75.292969 54.960938 C 78.867188 51.101562 77.597656 46.066406 72.75 44.703125 C 70.632812 44.136719 67.667969 44.136719 66.113281 44.75 Z M 66.113281 44.75 " fill-opacity="1" fill-rule="nonzero"/><path fill="#b76e79" d="M 31.757812 46.445312 C 27.382812 51.433594 26.253906 58.164062 28.933594 63.714844 C 29.6875 65.269531 30.816406 67.152344 31.476562 67.808594 C 32.886719 69.316406 36.417969 72.1875 37.40625 72.65625 C 37.78125 72.800781 38.769531 73.363281 39.523438 73.882812 C 41.6875 75.292969 46.773438 77.644531 47.714844 77.644531 C 47.996094 77.644531 48.605469 77.835938 49.078125 78.070312 C 52.230469 79.765625 59.335938 80.894531 66.351562 80.894531 L 71.054688 80.894531 L 66.726562 79.574219 C 56.371094 76.375 46.582031 70.023438 40.890625 62.773438 C 37.3125 58.210938 34.160156 50.539062 34.113281 46.207031 C 34.113281 44.277344 33.640625 44.324219 31.757812 46.445312 Z M 31.757812 46.445312 " fill-opacity="1" fill-rule="nonzero"/><path fill="#b76e79" d="M 109.082031 49.550781 C 108.988281 55.386719 107.625 60.1875 104.519531 65.410156 C 102.257812 69.222656 98.542969 73.738281 95.8125 75.90625 C 94.871094 76.65625 94.023438 77.410156 93.882812 77.597656 C 93.128906 78.683594 87.339844 81.882812 83.292969 83.480469 C 76 86.351562 63.339844 87.152344 54.539062 85.269531 C 46.582031 83.578125 39.710938 80.660156 34.019531 76.609375 L 30.816406 74.351562 L 30.816406 76.375 C 30.816406 79.433594 32.042969 86.496094 33.125 89.789062 C 36.089844 98.824219 42.300781 105.226562 49.738281 106.824219 C 52.417969 107.390625 52.84375 107.25 54.492188 105.039062 C 57.359375 101.226562 65.363281 93.648438 66.492188 93.648438 C 66.773438 93.648438 67.054688 93.460938 67.148438 93.269531 C 67.527344 92.332031 78.726562 86.210938 84.941406 83.53125 C 96.519531 78.492188 101.035156 76.140625 106.777344 72.046875 C 115.8125 65.597656 118.402344 58.398438 114.496094 50.585938 C 113.273438 48.183594 110.449219 44.703125 109.742188 44.703125 C 109.367188 44.703125 109.128906 46.160156 109.082031 49.550781 Z M 109.082031 49.550781 " fill-opacity="1" fill-rule="nonzero"/><path fill="#b76e79" d="M 57.503906 54.398438 C 57.078125 55.574219 56.796875 56.75 56.9375 56.9375 C 57.078125 57.125 58.066406 57.550781 59.242188 57.832031 C 60.375 58.113281 61.691406 58.492188 62.160156 58.679688 C 62.726562 58.867188 62.445312 58.257812 61.265625 56.703125 C 60.277344 55.433594 59.386719 53.925781 59.242188 53.316406 C 58.820312 51.714844 58.398438 51.996094 57.503906 54.398438 Z M 57.503906 54.398438 " fill-opacity="1" fill-rule="nonzero"/><path fill="#b76e79" d="M 75.292969 61.925781 C 73.222656 62.773438 70.210938 63.621094 68.65625 63.808594 C 65.972656 64.09375 60.324219 63.574219 57.785156 62.773438 C 56.703125 62.492188 56.703125 62.492188 57.972656 64.703125 C 59.386719 67.292969 64.515625 72.941406 65.410156 72.941406 C 66.632812 72.941406 70.066406 70.773438 72.796875 68.28125 C 75.527344 65.785156 80.1875 60.1875 79.433594 60.28125 C 79.246094 60.328125 77.363281 61.03125 75.292969 61.925781 Z M 75.292969 61.925781 " fill-opacity="1" fill-rule="nonzero"/><path fill="#b76e79" d="M 114.214844 72.800781 C 107.765625 78.730469 104.332031 80.707031 85.644531 89.082031 C 79.714844 91.765625 74.304688 94.636719 70.210938 97.320312 C 67.007812 99.390625 59.808594 106.167969 58.300781 108.519531 C 57.503906 109.695312 57.503906 109.742188 58.867188 110.824219 C 60.890625 112.519531 67.101562 115.671875 70.820312 116.945312 C 83.8125 121.367188 98.070312 118.074219 107.8125 108.472656 C 116 100.425781 119.53125 90.351562 118.355469 78.683594 C 117.929688 74.730469 117.132812 70.585938 116.800781 70.585938 C 116.707031 70.585938 115.578125 71.574219 114.214844 72.800781 Z M 114.214844 72.800781 " fill-opacity="1" fill-rule="nonzero"/><path fill="#b76e79" d="M 7.238281 86.445312 C 3.898438 90.636719 1.636719 95.058594 1.636719 97.320312 C 1.636719 99.53125 3.050781 102.023438 5.96875 104.847656 C 12.132812 110.824219 20.273438 115.015625 29.453125 116.945312 L 33.546875 117.792969 L 35.523438 122.167969 C 38.488281 128.757812 42.722656 133.980469 48.417969 138.214844 C 51.523438 140.523438 52.511719 140.664062 56.277344 139.347656 C 63.855469 136.757812 73.082031 130.308594 76.328125 125.320312 C 77.269531 123.910156 76.84375 123.53125 73.691406 123.0625 C 67.996094 122.214844 61.03125 119.015625 54.585938 114.308594 C 53.03125 113.179688 51.289062 112.378906 49.40625 112.003906 C 40.890625 110.214844 33.828125 104.238281 29.6875 95.296875 C 28.417969 92.613281 28.230469 92.425781 25.453125 91.390625 C 21.074219 89.789062 16.792969 87.339844 14.0625 84.941406 C 12.226562 83.339844 11.425781 82.824219 10.816406 82.824219 C 10.4375 82.824219 8.792969 84.46875 7.238281 86.445312 Z M 7.238281 86.445312 " fill-opacity="1" fill-rule="nonzero"/><path fill="#b76e79" d="M 118.542969 103.15625 C 111.53125 115.15625 99.953125 122.640625 86.210938 124.050781 C 83.527344 124.332031 83.105469 124.519531 82.351562 125.746094 C 81.929688 126.496094 80.894531 127.863281 80.140625 128.757812 C 79.339844 129.652344 78.820312 130.640625 78.964844 130.96875 C 79.246094 131.675781 84.988281 133.371094 89.644531 134.074219 C 94.070312 134.78125 101.648438 134.6875 105.976562 133.886719 C 112.800781 132.617188 118.917969 129.652344 126.167969 124.191406 C 131.863281 119.910156 131.769531 120.050781 131.0625 117.273438 C 129.648438 111.71875 122.824219 100.378906 120.847656 100.285156 C 120.519531 100.238281 119.484375 101.554688 118.542969 103.15625 Z M 118.542969 103.15625 " fill-opacity="1" fill-rule="nonzero"/></svg>